# xmcd
#
# Track frame offsets:
#	150
#	12094
#	25371
#	38700
#	50703
#	62662
#	74771
#	85952
#	95354
#	109071
#	122573
#	136311
#	149365
#	162657
#	175440
#	189044
#	202327
#	213219
#	225874
#	238112
#
# Disc length: 3352 seconds
#
# Revision: 1
# Processed by: cddbd v1.5.2PL0 Copyright (c) Steve Scherf et al.
# Submitted via: audiograbber 1.83.01
#
DISCID=1f0d1614
DTITLE=Sunnyland Slim - The Chronological Sunnyland Slin 1952 - 1955
DYEAR=2006
DGENRE=Blues
TTITLE0=Shake It Baby
TTITLE1=Woman Trouble
TTITLE2=City Of New Orleans
TTITLE3=When I Was Young
TTITLE4=Bassology
TTITLE5=Worrie About My Baby
TTITLE6=Living In The White House
TTITLE7=Please Don't
TTITLE8=Trouble Of My Own
TTITLE9=Worried About My Baby
TTITLE10=I Done You Wrong
TTITLE11=Be My Baby
TTITLE12=Going Back To Memphis
TTITLE13=Devil Is A Busy Man
TTITLE14=Shake It Baby
TTITLE15=Bassology
TTITLE16=Four Day Bounce
TTITLE17=That Woman (You Have Heard Of A Woman)
TTITLE18=Be Mine Alone
TTITLE19=Sad And Lonesome
EXTD=
EXTT0=
EXTT1=
EXTT2=
EXTT3=
EXTT4=
EXTT5=
EXTT6=
EXTT7=
EXTT8=
EXTT9=
EXTT10=
EXTT11=
EXTT12=
EXTT13=
EXTT14=
EXTT15=
EXTT16=
EXTT17=
EXTT18=
EXTT19=
PLAYORDER=
